<?xml version="1.0"?><svg width="1859.934" height="1868.935" xmlns="http://www.w3.org/2000/svg">
 <title>Oktoberfest Beer Mug</title>
 <g>
  <title>Layer 1</title>
  <g id="Layer_1">
   <g id="svg_99"/>
   <g id="svg_120">
    <path id="svg_121" d="m1235.864258,1435.090088c-7.446655,0 -15.155396,-0.180542 -22.867554,-0.54541l-12.966431,-0.617432l-1.796265,-147.040771l15.812622,2.195435c0.010986,0 4.745483,0.614136 12.468018,0.614136c40.218628,0 135.343994,-15.56958 151.089966,-159.537964c3.055176,-135.901123 -1.965576,-352.340515 -28.326904,-393.326477l-1.074707,-1.671448l-0.572876,-1.913635c-0.130737,-0.458496 -15.516113,-49.203674 -50.501099,-49.203674c-22.853149,0 -51.700317,19.887878 -83.421631,57.504517l-3.037354,3.603821l-43.372437,9.341064l-15.459595,-214.518921l10.00708,-3.534851c2.124634,-0.747192 52.619141,-18.327942 114.537842,-18.327942c76.989868,0 208.440308,29.655212 223.705322,228.26123c1.135132,12.900879 28.210327,320.497253 19.143677,425.808533c-0.03894,10.449585 -2.330078,111.510864 -74.605957,185.953735c-49.581665,51.059448 -119.824585,76.956055 -208.761719,76.956055z" fill="#EFF3FA"/>
    <path id="svg_122" d="m1276.379517,532.167358c87.067139,0 196.234131,36.56604 209.964478,215.298279c0,0 28.33728,319.446838 19.108276,424.086121c0,0 2.114624,249.474487 -269.588013,249.474487c-7.217163,0 -14.625,-0.17688 -22.227661,-0.53418l-1.435303,-117.476196c0,0 5.388794,0.747559 14.313354,0.747559c39.426758,0 147.858032,-14.583862 164.848389,-172.666382c0,0 7.783203,-342.357117 -30.568237,-401.984924c0,0 -17.825073,-59.126099 -63.669678,-59.133057c-23.482544,0 -54.302246,15.500793 -93.855957,62.389771l-23.393921,5.037048l-13.532471,-187.67572c0.01062,-0.003601 49.734009,-17.555725 110.036743,-17.562805m0.017822,-28.131409l0,28.131409l-0.010864,-28.131409c-64.206299,0.00708 -116.825684,18.320923 -119.046509,19.111633l-20.024292,7.066467l1.559448,21.581177l13.532471,187.67572l2.308838,32.100159l30.844727,-6.644226l23.397461,-5.033447l9.10144,-1.960388l6.071655,-7.207153c38.623657,-45.791504 62.304321,-52.619507 72.986572,-52.619507c24.366577,0 37.266113,39.024963 37.389526,39.418579l1.159912,3.820007l2.107544,3.206726c4.618164,7.185364 20.095215,43.484131 25.155273,208.787964c2.605713,85.275452 1.138184,165.155823 0.911865,175.887024c-14.161499,127.355103 -92.055786,146.408936 -137.327759,146.408936c-6.654419,0 -10.713501,-0.502197 -10.766602,-0.512573l-31.643799,-4.387573l0.547729,32.634155l1.432251,117.475708l0.325439,26.513916l25.936646,1.231445c7.931152,0.37915 15.837646,0.570557 23.503418,0.570557c92.746094,0 166.273682,-27.293701 218.549927,-81.137207c74.623901,-76.862061 78.435669,-180.714844 78.58728,-195.172363c8.985229,-106.679443 -17.842285,-412.379944 -19.20752,-427.751282c-16.155762,-209.748413 -155.654175,-241.064453 -237.38208,-241.064453l0,0z" fill="#000000"/>
    <path id="svg_123" d="m703.624939,1661.047241c-104.612488,0 -358.490692,-12.832397 -456.391693,-131.713135c-2.086533,-2.545654 -3.235489,-5.762573 -3.225235,-9.088135l1.930771,-917.46698c0.014252,-7.015686 5.088593,-12.951416 11.89856,-13.905273l909.304138,-127.343811c0.619141,-0.086945 1.245117,-0.133514 1.863647,-0.133514c3.196533,0 6.322632,1.137054 8.815308,3.253265c2.973999,2.527649 4.773438,6.221375 4.943848,10.16098l45.953491,1018.824249c0.137695,3.285767 -0.848633,6.535034 -2.790039,9.157104c-33.383179,44.885132 -147.29187,150.102051 -483.2052,157.522217l0,0c0.10614,0.014404 -14.663696,0.733032 -39.097595,0.733032z" fill="#EFF3FA"/>
    <path id="svg_124" d="m1169.005493,475.474884l45.946655,1018.824554c-30.423462,40.924194 -140.053955,144.625 -472.529968,151.968872c-0.724792,0.036255 -15.158875,0.711426 -38.800659,0.711426c-97.385193,0 -350.983734,-11.50769 -445.840179,-126.701294l1.930695,-917.46344l909.293457,-127.340179m0,-28.127563c-1.248535,0 -2.496704,0.086395 -3.741211,0.26004l-909.297119,127.339966c-13.624054,1.910217 -23.779572,13.771606 -23.807724,27.814026l-1.927261,917.462952c-0.014236,6.643799 2.280869,13.082031 6.463852,18.162354c45.077072,54.739014 125.093063,93.789307 237.828049,116.067749c90.988251,17.977783 182.595367,20.660278 229.101349,20.660278c22.456848,0 36.993225,-0.606323 39.712585,-0.725342c341.673218,-7.611572 458.962524,-116.566528 493.548096,-163.068848c3.903809,-5.246338 5.873413,-11.728027 5.576538,-18.303223l-45.940063,-1018.831757c-0.357178,-7.896301 -3.942505,-15.26944 -9.886597,-20.321014c-4.97522,-4.242859 -11.233887,-6.517212 -17.630493,-6.517212l0,0l0,0.000031z" fill="#000000"/>
    <path id="svg_125" d="m729.90448,1863.224365c-103.007141,0 -358.285187,-10.352173 -503.654083,-106.264771c-1.053604,-0.682129 -2.00119,-1.523804 -2.828552,-2.476685c-4.08075,-4.697632 -38.422546,-50.521729 9.858322,-211.669678c1.729019,-5.77356 6.873871,-9.785156 12.793335,-9.947632c0,0 4.158051,-0.111816 4.281815,-0.111816c3.705643,0 7.263214,1.52356 9.858246,4.235474c17.135773,17.93811 39.013031,34.157593 65.020233,48.213989c119.163055,64.416382 300.623627,71.377686 373.10495,71.377686c25.812805,0 42.396545,-0.834351 44.206848,-0.928345c307.582825,-6.798584 427.057312,-93.200195 470.946106,-144.093994c2.627441,-3.058228 6.410767,-4.777222 10.3396,-4.777222c0.593872,0 1.202271,0.043457 1.802856,0.115601c4.547485,0.614136 8.50061,3.506226 10.53772,7.716553c7.181641,14.814941 68.495728,146.78418 10.830688,215.912109c-0.304321,0.367798 -0.629272,0.71814 -0.975952,1.057617c-5.010498,4.88916 -126.885986,119.859497 -480.234985,131.13208c-0.438538,0.014282 -13.479309,0.52356 -35.869385,0.52356c-0.006897,-0.014526 -0.014221,-0.014526 -0.017761,-0.014526z" fill="#EFF3FA"/>
    <path id="svg_126" d="m1223.827637,1520.838501c6.021973,12.424561 64.825806,138.039063 12.690796,200.559448c0,0 -119.022095,116.01709 -471.161499,127.246216c0,0 -13.062378,0.520264 -35.451965,0.520264c-94.036438,0 -352.359253,-9.131714 -496.178955,-104.015381c0,0 -34.688492,-39.956543 12.722549,-198.219604l3.907257,-0.107788c19.055099,19.934692 42.368118,36.720825 68.428482,50.809814c119.775146,64.748169 296.992676,73.006348 379.558228,73.006348c25.423706,0 41.88031,-0.780151 44.910583,-0.938721c314.350647,-6.950928 436.505432,-97.746948 480.574524,-148.860596m-0.014282,-28.128052c-7.856934,0 -15.395508,3.434082 -20.671143,9.542847c-19.373657,22.477539 -57.346802,55.180176 -128.247437,83.372681c-85.907227,34.154297 -197.690674,52.980469 -332.249878,55.948608c-0.268494,0.007202 -0.537415,0.014648 -0.809814,0.028809c-1.774902,0.0979 -18.030029,0.910156 -43.503357,0.910156c-71.455566,0 -250.228607,-6.799194 -366.665466,-69.738525c-24.734406,-13.377563 -45.466095,-28.716187 -61.608154,-45.6073c-5.187042,-5.426514 -12.301819,-8.481567 -19.709656,-8.481567c-0.24736,0 -0.501984,0.003418 -0.756638,0.01123l-3.903717,0.10437c-11.827972,0.332153 -22.128128,8.340942 -25.582993,19.891724c-48.188797,160.851563 -17.538422,212.969482 -6.994247,225.112183c1.654846,1.913574 3.564438,3.589111 5.664749,4.979126c148.448273,97.934814 406.894989,108.510498 511.125519,108.510498c22.662476,0 35.964722,-0.52002 36.516296,-0.53772c358.345886,-11.428345 483.937195,-129.973145 489.110657,-135.010132c0.678711,-0.667725 1.336548,-1.368164 1.948242,-2.104492c62.078003,-74.414307 3.426514,-205.711914 -8.963867,-231.276001c-4.073486,-8.405884 -11.97644,-14.179565 -21.085083,-15.410889c-1.19873,-0.17334 -2.408447,-0.245605 -3.614014,-0.245605l0,0z" fill="#000000"/>
    <path id="svg_127" d="m1138.316162,1390.800537c0.721313,51.550659 -37.202148,107.755859 -84.29126,124.921387c-188.762085,68.792114 -386.668579,76.111084 -580.830688,28.860474c-23.122131,-5.621826 -46.353485,-11.326782 -68.97702,-18.844482c-47.552094,-15.786011 -87.070099,-70.893433 -87.805603,-122.454834l-6.549011,-459.396301c-0.724609,-51.557739 -1.937561,-135.937683 -2.666199,-187.509644l-6.548431,-459.392517c-0.731995,-51.565262 39.532318,-94.377792 89.478394,-95.13237l229.320435,-3.484665c49.946106,-0.761536 131.687927,-2.000122 181.630066,-2.758286l229.313538,-3.481155c49.960449,-0.758087 68.71875,40.812256 69.450684,92.373901l24.716797,459.392303c0.721313,51.565247 6.470459,135.945251 7.206055,187.51001l6.552246,459.396179z" fill="#FFCD49"/>
    <path id="svg_128" d="m1066.479126,1220.189087c3.161377,51.384399 2.991211,96.963257 -34.288574,106.462891c-39.493652,10.063354 -43.634399,-39.682129 -44.719849,-91.370117c-2.882019,-136.576538 -1.722168,-273.579529 -1.941101,-410.27887c-0.07428,-45.614502 -0.191345,-120.241333 -0.265503,-165.852844l-0.629211,-406.3396c-0.070862,-45.600281 3.829468,-83.466049 8.663086,-84.141373l22.21344,-3.083572c4.844055,-0.660645 12.754211,-1.758163 17.605286,-2.436935l22.209717,-3.072952c4.83728,-0.675323 6.651611,36.100357 6.725952,81.700317l2.389893,406.336273c0.074219,45.614197 0.633057,120.237671 0.696655,165.852234c0.127319,83.112732 -0.063599,166.232361 0.251343,249.344421c0.190552,51.933472 -2.185669,104.455322 1.025391,156.078369c0.02063,0.25647 0.03833,0.5271 0.063477,0.801758z" fill="#F89939"/>
    <path id="svg_129" d="m1056.765625,570.199402c0,0 142.917725,130.965515 197.888794,-112.258362c0,0 87.947632,-37.425781 29.310059,-119.754181c0,0 29.312988,-97.2845 -54.967285,-86.058594c0,0 10.993408,-127.224838 -109.93811,-104.776657c0,0 -40.306641,-74.847252 -117.260803,-14.97023c0,0 16.032471,-73.685047 -18.319824,-113.616098c0,0 -135.595093,-140.841429 -282.169739,8.84268c0,0 -76.957275,-59.877232 -139.251221,22.455212c0,0 -62.293518,-44.906911 -120.931183,29.936829c0,0 -62.293884,-104.787689 -131.924988,0c0,0 -164.904892,-22.455299 -142.917938,145.939194c0,0 -128.254345,71.088547 -62.290092,164.646805c0,0 -80.062063,59.498138 -21.986977,123.487915c0,0 -48.892357,71.976563 43.977356,130.969116c0,0 14.656754,78.580627 73.290466,56.128845c0,0 -18.31633,119.743652 58.630585,138.46167c0,0 14.65683,254.449585 168.571808,231.998413c0,0 117.260834,3.736938 139.25119,-160.906006c0,0 135.591919,-82.325256 69.627625,-194.590759c0,0 128.165833,42.624451 172.143127,-80.862915c0,0 88.852722,57.977783 125.485718,-9.377014c-0.010315,-0.003601 112.780823,67.784729 123.781433,-55.695862z" fill="#FFFFFF"/>
    <path id="svg_130" d="m407.68985,1087.09668c-132.338654,0 -158.367004,-190.10614 -162.76239,-236.742126c-58.814087,-21.491943 -62.866287,-95.157959 -61.119522,-131.265503c-1.524124,0.115417 -3.037399,0.17627 -4.526199,0.17627c-44.199982,0 -60.833221,-47.990051 -65.416016,-65.444702c-31.742844,-21.368347 -50.784252,-46.827881 -56.636051,-75.724609c-5.47015,-27.029968 2.294628,-49.983704 8.111462,-62.332092c-13.832813,-18.155182 -19.844273,-37.689117 -17.888535,-58.183777c3.040932,-31.854156 25.063225,-57.154999 38.358238,-69.730927c-13.525047,-23.581787 -17.601891,-47.875061 -12.121376,-72.384766c11.085388,-49.47821 58.559914,-84.495087 77.880592,-96.948471c-4.448044,-46.560822 4.787766,-83.534882 27.499374,-110.030663c32.496124,-37.891251 83.789246,-43.552887 111.479492,-43.552887c4.660828,0 8.716492,0.155167 11.951721,0.357437c22.007996,-30.481995 46.144928,-45.932253 71.834045,-45.932253c30.752655,0 54.733795,22.55982 67.756989,38.356848c27.743103,-28.611528 55.575287,-35.085428 75.054871,-35.085428c17.566956,0 32.188354,5.10541 41.565735,9.543009c22.881775,-25.997749 50.536438,-39.660499 80.574951,-39.660499c26.113281,0 48.103577,10.1786 60.246582,17.26292c45.22522,-43.231522 94.01532,-65.134491 145.177612,-65.134491c85.716187,0 146.051025,61.635771 148.583008,64.261011c0.180054,0.18768 0.349976,0.38256 0.519714,0.58095c23.807739,27.66584 26.636536,67.97617 25.168945,95.52264c13.483215,-6.585899 26.764465,-9.90432 39.705872,-9.90432c34.988892,0 57.244629,23.776947 66.901123,36.962967c38.928101,-5.246017 69.065186,3.928909 89.655396,26.896393c21.901855,24.423706 26.795898,58.357407 27.626709,78.201981c26.37146,0.31778 40.444946,12.125076 47.626465,22.058167c17.740356,24.531158 11.983521,60.881226 8.408813,76.280701c17.361816,26.560425 22.863525,52.00943 16.347168,75.731934c-8.610596,31.334412 -35.964966,49.467499 -48.716064,56.414398c-29.960205,125.271423 -85.238525,151.824951 -126.698242,151.824951c-29.500854,0 -56.084839,-13.294434 -73.071533,-24.329346c-12.807251,54.522583 -49.45105,63.38678 -71.876343,63.38678c-0.003601,0 -0.003601,0 -0.003601,0c-22.428833,0 -44.313049,-8.369629 -57.219666,-14.421448c-14.239319,18.653198 -34.479492,28.427734 -59.238464,28.427734c-24.889954,0 -49.309753,-9.940125 -64.114929,-17.396545c-24.345276,53.146667 -69.729797,82.173157 -129.322327,82.173157c-9.253357,0 -17.820984,-0.711487 -25.282288,-1.696899c8.514954,23.960999 9.798157,48.247253 3.808228,72.514893c-14.497498,58.692871 -67.424561,98.938232 -85.093689,110.980286c-24.391479,160.82605 -136.818451,166.524048 -151.065216,166.596313c-6.668823,0.917358 -13.277161,1.390015 -19.670654,1.390015zm-208.429626,-399.992126c3.118698,0 6.20578,1.079712 8.695053,3.159363c3.804916,3.159485 5.671722,8.131653 4.911621,13.07489c-0.155899,1.05426 -15.392334,107.134216 48.216904,122.610291c5.905212,1.433289 10.201416,6.654907 10.55838,12.843323c0.12384,2.20636 14.299805,220.176331 136.040649,220.176331c5.431396,0 11.096222,-0.418335 16.8349,-1.260132c0.77774,-0.111938 1.594849,-0.16272 2.376129,-0.133545c10.975861,0 105.871643,-4.174072 125.167725,-148.748901c0.569214,-4.242065 3.005554,-7.997375 6.608337,-10.189392c0.625916,-0.378967 63.948914,-39.613464 78.163696,-97.500732c6.332581,-25.784607 1.85614,-51.947815 -13.306152,-77.757385c-2.959839,-5.030273 -2.545776,-11.410522 1.039795,-15.999878c3.578369,-4.589172 9.579041,-6.419861 15.034851,-4.606934c0.16626,0.057495 19.86554,6.416199 45.395386,6.416199c54.082825,0 90.935547,-26.484985 109.534485,-78.717957c1.428711,-4.007935 4.565063,-7.149231 8.529236,-8.517761c3.953064,-1.372009 8.312927,-0.830505 11.831299,1.469604c0.300415,0.198669 32.722229,20.989136 63.538208,20.989136c19.32428,0 33.220886,-8.286377 42.495667,-25.336548c1.807251,-3.314636 4.840759,-5.752075 8.419678,-6.745056c3.574768,-1.000183 7.404236,-0.47998 10.60791,1.451843c0.261414,0.151611 28.181824,16.620483 54.942261,16.620483c0.03894,0 0.077576,0 0.116516,0c10.682251,0 42.573547,-0.220459 48.029602,-61.462769c0.474121,-5.300049 3.83667,-9.864624 8.681152,-11.814026c4.847778,-1.953613 10.363525,-0.935242 14.23584,2.617798c0.33252,0.30304 35.222168,31.619507 73.891846,31.619507c58.280273,0 87.296875,-74.27002 101.376831,-136.569519c1.001099,-4.420013 4.020752,-8.073975 8.126221,-9.821625c0.275757,-0.122986 32.021729,-14.161377 39.436523,-41.465881c4.501587,-16.630981 -0.865967,-35.82196 -15.968262,-57.020935c-2.553223,-3.581726 -3.306396,-8.181976 -2.022705,-12.406769c3.207031,-10.785126 9.030884,-42.314362 -2.471558,-58.161591c-6.576904,-9.056 -19.136841,-12.276703 -37.54895,-9.824768c-4.158325,0.566772 -8.309326,-0.841736 -11.318848,-3.798462c-3.012451,-2.95047 -4.554199,-7.13858 -4.186523,-11.381439c0.038818,-0.433289 3.518188,-46.46637 -20.406128,-73.023865c-11.573242,-12.861618 -27.581299,-19.108078 -48.913574,-19.108078c-7.524658,0 -15.745972,0.819366 -24.426636,2.429886c-5.834473,1.076355 -11.679199,-1.758133 -14.529541,-7.058868c-0.664795,-1.202316 -17.382813,-30.900711 -48.291138,-30.900711c-14.876099,0 -31.215698,6.845917 -48.556396,20.339676c-4.600525,3.578049 -10.905212,3.838058 -15.773865,0.663666c-4.872925,-3.188095 -7.273682,-9.131302 -6.018555,-14.901413c0.12738,-0.649658 13.938965,-66.82407 -14.936035,-100.938358c-3.977966,-3.978861 -57.255066,-55.62723 -128.699768,-55.62723c-46.608215,0 -91.575684,21.79086 -133.678772,64.7731c-4.879761,4.979328 -12.598633,5.509949 -18.08313,1.246059c-0.201599,-0.159241 -24.005676,-18.148149 -53.662476,-18.148149c-24.932007,0 -47.2547,12.79286 -66.338867,38.007269c-4.512024,5.960861 -12.821472,7.239059 -18.843323,2.895702c-0.084656,-0.061592 -15.607666,-10.785393 -36.958313,-10.785393c-23.546082,0 -45.511749,12.79623 -65.271027,38.017742c-2.810944,3.585197 -7.164032,5.5532 -11.64743,5.249466c-4.490845,-0.29567 -8.546478,-2.805008 -10.887268,-6.737549c-0.215851,-0.372009 -24.253571,-39.797489 -54.995789,-39.797489c-17.856567,0 -35.939789,13.590981 -53.746979,40.3969c-2.938232,4.408669 -8.051544,6.74511 -13.221252,6.044731c-0.042328,-0.003403 -6.69339,-0.870102 -16.828033,-0.870102c-23.01886,0 -65.426346,4.415642 -90.747726,33.951851c-18.740967,21.859306 -25.424118,54.511635 -19.868805,97.060539c0.756638,5.781158 -2.065018,11.435196 -7.082336,14.219025c-0.594482,0.335861 -61.463173,34.75705 -72.318497,83.516815c-4.533073,20.354156 0.254715,40.155121 14.631775,60.552338c4.430756,6.278748 3.055168,15.035065 -3.065475,19.591675c-0.32547,0.234863 -34.211029,26.008698 -37.241165,58.458313c-1.425224,15.313446 4.214539,29.727325 17.248383,44.094757c4.398888,4.845581 4.900879,12.150024 1.216354,17.573242c-0.106155,0.162537 -14.840675,22.827209 -9.034256,50.67334c4.657036,22.35437 21.141785,42.653931 48.970154,60.335693c3.26358,2.076294 5.530167,5.452271 6.254883,9.308411c0.085083,0.454834 9.670959,48.731018 39.769638,48.731018c4.61084,0 9.709824,-1.05072 15.144577,-3.130737c1.556076,-0.617371 3.200226,-0.910034 4.82309,-0.910034z" fill="#000000"/>
    <path id="svg_131" d="m597.820618,1399.318359c20.558228,0 20.558228,-32.561523 0,-32.561523c-20.568848,0.00354 -20.568848,32.561523 0,32.561523l0,0z" fill="#F89939"/>
    <path id="svg_132" d="m689.643677,1164.907959c20.561584,0 20.561584,-32.561401 0,-32.561401s-20.561646,32.561401 0,32.561401l0,0z" fill="#F89939"/>
    <path id="svg_133" d="m809.012146,864.865356c20.558167,0 20.558167,-32.561523 0,-32.561523c-20.565491,0 -20.565491,32.561523 0,32.561523l0,0z" fill="#F89939"/>
    <path id="svg_134" d="m469.26593,1193.039673c20.558136,0 20.558136,-32.565674 0,-32.565674c-20.565521,0.004272 -20.565521,32.565674 0,32.565674l0,0z" fill="#F89939"/>
    <path id="svg_135" d="m900.835327,1394.628296c20.561523,0 20.561523,-32.561523 0,-32.561523s-20.562256,32.561523 0,32.561523l0,0z" fill="#F89939"/>
    <path id="svg_136" d="m835.602905,1022.969727c1.962769,-6.369141 2.390503,-13.052734 -1.396545,-18.985596c-3.624695,-5.668579 -9.225647,-9.380493 -16.010986,-9.380493c-6.789246,0 -12.393677,3.708313 -16.014771,9.380493c-3.783264,5.932861 -3.348694,12.605591 -1.382507,18.985596c2.418457,7.860596 9.147827,13.526367 17.397278,13.526367s14.974609,-5.665771 17.407532,-13.526367l0,0z" fill="#F89939"/>
    <path id="svg_137" d="m623.06781,1024.392578c1.622925,1.462402 3.239014,2.935303 4.862,4.408447c4.518799,4.112427 9.607544,6.687256 15.802246,6.687256c5.89801,0 11.622925,-2.430298 15.795593,-6.687256c4.17572,-4.260498 6.548401,-10.110229 6.548401,-16.129333c0,-6.325867 -2.517334,-11.521606 -6.548401,-16.136353c-1.439087,-1.657532 -2.882019,-3.307556 -4.31781,-4.964844c-8.242126,-9.452576 -23.768738,-8.549927 -32.142029,0c-8.372986,8.550171 -9.25354,24.40509 0,32.822083l0,0z" fill="#F89939"/>
    <path id="svg_138" d="m712.599487,1338.372314c20.561829,0 20.561829,-32.561523 0,-32.561523c-20.568787,0.00354 -20.565491,32.561523 0,32.561523l0,0z" fill="#F89939"/>
    <path id="svg_139" d="m832.890625,1235.946533c-1.598511,-4.423218 -3.988831,-10.417114 -8.581848,-12.518799c-4.264709,-1.949341 -7.517456,-2.567017 -12.043762,-1.53064c-3.337891,0.754639 -6.290649,3.246094 -8.691528,5.560547c-5.402893,5.192261 -5.646606,15.334595 0,20.487183c5.80603,5.300537 11.88092,7.022583 19.522217,5.650513c3.419434,-0.613159 7.266724,-3.234985 9.720642,-5.650513c-3.348694,1.415527 -6.690002,2.834473 -10.038696,4.246582c1.534546,0 3.065491,0 4.593201,0c6.311829,0 12.008179,-4.427246 13.680725,-10.641235c1.966187,-7.290039 -2.347656,-16.143433 -9.907715,-17.819092c3.065735,0.682617 2.004944,1.050903 0.735291,0.487427c-1.488525,-0.664307 -3.076294,-1.429932 -4.671021,-1.942261c3.649536,3.726074 7.291077,7.445068 10.940796,11.171509c-1.499634,-5.556763 -4.526184,-8.557617 -8.893066,-11.901123c1.244324,0.978516 2.474976,1.953369 3.708984,2.928589c-0.215881,-0.187866 -0.431213,-0.372192 -0.661194,-0.563477c-2.492676,-2.523804 -5.42804,-4.274902 -8.815491,-5.239502c-5.671265,-1.599487 -10.208374,-0.205811 -15.391907,2.050903c-1.973083,0.863281 -3.712952,2.80957 -5.417114,4.293457c-3.376953,2.964478 -4.975403,7.066162 -6.418091,11.200439c-2.669678,7.644043 0.435059,17.068115 5.844971,22.589233c7.496216,7.661621 18.401672,8.459595 27.548889,3.624878c0.392883,-0.191528 0.78186,-0.411743 1.146301,-0.660767c-3.903809,1.075806 -7.800781,2.162964 -11.711487,3.235352c10.883789,0.361084 19.985291,-7.185425 24.462036,-16.84021c-4.996338,3.924072 -9.982178,7.842163 -14.975098,11.763184c7.057861,-2.498413 13.005432,-6.242798 16.852661,-12.933716c1.573303,-2.751099 2.195679,-5.166748 3.136353,-7.878174c-0.89447,2.180908 -1.803345,4.365479 -2.697815,6.546265c0.010498,-0.029053 0.017822,-0.057861 0.035339,-0.086792c-3.207397,3.278442 -6.417969,6.549683 -9.63208,9.835693c0.010498,0 0.010498,-0.003662 0.021118,-0.006958c-13.461365,-7.896851 -26.930359,-15.775513 -40.391968,-23.668701c0.028503,0.411743 -0.07428,0.859375 -0.123413,1.271118c-0.799438,6.827759 3.362366,14.843628 7.909851,19.486938c5.042358,5.15271 11.955078,8.07019 19.080139,8.07019s14.055969,-2.920776 19.087708,-8.07019c4.536499,-4.63623 8.709106,-12.670288 7.899414,-19.486938c-0.332458,-2.849121 -0.290222,-5.842285 -1.131836,-8.561523c-2.832336,-9.210693 -9.472778,-16.533569 -18.747803,-19.140259c-4.755737,-1.303711 -9.511719,-1.303711 -14.264099,0c-4.543823,1.299805 -8.500671,3.653931 -11.845947,7.051758c-5.848267,4.744629 -7.365051,12.821533 -7.930908,19.859253c-0.664673,8.326172 3.192871,15.197632 8.348389,21.137329c-2.1427,-8.308472 -4.296143,-16.609863 -6.446228,-24.907104c-0.190735,1.292725 -0.448853,2.556396 -0.813232,3.812988c-1.470947,4.971924 -1.983704,10.333862 -0.208374,15.349243c0,-4.195801 0,-8.394775 0,-12.601685c-0.07428,0.213135 -0.145142,0.411743 -0.219299,0.621094c0.774414,-1.866577 1.545288,-3.733276 2.32312,-5.603882c-0.098755,0.216919 -0.187439,0.42627 -0.275818,0.642456c13.853943,1.852783 27.69751,3.694214 41.551514,5.546387c-1.343689,-3.856201 -2.987915,-8.185669 -6.170471,-10.965698c-1.764404,-1.549072 -3.695068,-3.665283 -5.67157,-4.528076c3.065735,7.676392 6.120605,15.353149 9.183044,23.033203c0.077698,-0.361206 0.152039,-0.722168 0.229614,-1.07959c-2.807312,3.7229 -5.611633,7.448853 -8.419067,11.178711c4.356445,-3.343628 7.390076,-6.34729 8.886108,-11.897461c-3.64563,3.718994 -7.29126,7.445557 -10.940857,11.164307c1.601868,-0.512451 3.182556,-1.278198 4.674805,-1.945923c1.269409,-0.549072 2.333923,-0.184326 -0.731567,0.498291c6.113647,-1.357666 10.413269,-7.79541 10.413269,-13.966675c0,-7.900146 -6.449524,-14.489746 -14.186462,-14.489746c-2.747437,0 -5.696655,-0.230957 -8.35907,0.520264c-2.500122,0.696777 -4.448425,1.946045 -6.301147,3.765625c-1.463989,1.437012 3.41571,-2.480225 1.548828,-1.263672c-1.919922,1.249268 3.684509,-1.274658 1.279846,-0.577393c2.846619,-0.812622 5.884216,-0.209839 8.090637,1.797974c0,6.831299 0,13.65918 0,20.480469c0.240356,-0.227539 0.484375,-0.459229 0.724731,-0.689941c-2.015747,2.01123 -4.518921,3.018311 -7.524841,3.029541c-2.39386,-0.660889 -4.780273,-1.314697 -7.167358,-1.978882c-1.428223,-1.484009 -2.871277,-2.97168 -4.310425,-4.459473c-0.643555,-2.437134 -1.290527,-4.870605 -1.934143,-7.308228c0.123901,1.404907 0.275818,0.578003 0.463196,-2.451416c-0.077698,0.631592 -0.275757,1.256714 -0.445557,1.866821c-2.683899,9.774292 4.830139,19.732422 14.724182,19.732422c9.303345,0 18.242004,-10.081177 14.741455,-19.732422l0,0z" fill="#F89939"/>
    <path id="svg_140" d="m431.084259,1301.109741c-5.671753,2.650269 -10.710663,9.676758 -11.969391,15.757446c-1.269592,6.145508 -0.696716,9.961914 0.332336,16.172241c1.096405,3.997192 3.076355,7.467163 5.940674,10.413818c4.310364,4.401245 10.240326,6.907104 16.336365,6.907104c4.168762,-0.014526 8.058319,-1.087036 11.6651,-3.217285c4.73468,-2.841553 9.649689,-8.35498 10.611511,-14.103638c0.176941,-1.029053 0.311035,-2.065308 0.661163,-3.054932c-0.792053,1.917358 -1.584045,3.842041 -2.379639,5.766479c0.063416,-0.173096 0.14856,-0.324585 0.240387,-0.47998c-1.233917,1.63208 -2.474945,3.260498 -3.709015,4.90332c0.084564,-0.130249 0.190735,-0.234497 0.314728,-0.325195c-1.609192,1.271606 -3.207092,2.531494 -4.819794,3.802368c0.070709,-0.036133 0.12735,-0.072266 0.190735,-0.112061c-1.898743,0.819946 -3.797577,1.643311 -5.689362,2.455444c0.144928,-0.072388 0.297363,-0.111938 0.456268,-0.133545c-2.125031,0.29248 -4.239746,0.581543 -6.354187,0.880859c0.088379,-0.010376 0.180389,-0.021729 0.265411,-0.028687c6.573486,-0.635864 12.13559,-2.256714 16.947906,-7.170776c6.03952,-6.170776 8.429901,-15.38208 6.159576,-23.809326c-1.647583,-6.113159 -5.657532,-11.417725 -11.014587,-14.620239c-3.733826,-2.216919 -7.768646,-3.329102 -12.092896,-3.34375c-4.324585,0.010986 -8.363037,1.130249 -12.093292,3.340332l0,0z" fill="#F89939"/>
    <path id="svg_141" d="m923.790833,705.685608c3.076294,0 3.076294,-4.870728 0,-4.870728s-3.076477,4.870728 0,4.870728l0,0z" fill="#F89939"/>
    <path id="svg_142" d="m914.611572,742.970215c20.558167,0 20.558167,-32.561707 0,-32.561707c-20.569031,0 -20.569031,32.561707 0,32.561707l0,0z" fill="#F89939"/>
   </g>
  </g>
 </g>
</svg>